<?xml version="1.0" encoding="UTF-8" standalone="no"?><!DOCTYPE svg PUBLIC "-//W3C//DTD SVG 1.1//EN" "http://www.w3.org/Graphics/SVG/1.1/DTD/svg11.dtd"><svg width="100%" height="100%" viewBox="0 0 121 75" version="1.1" xmlns="http://www.w3.org/2000/svg" xmlns:xlink="http://www.w3.org/1999/xlink" xml:space="preserve" xmlns:serif="http://www.serif.com/" style="fill-rule:evenodd;clip-rule:evenodd;stroke-linejoin:round;stroke-miterlimit:2;"><path id="s" d="M64.96,23.289l-7.834,0c-0.583,0.032 -1.159,0.079 -1.73,0.144l-51.407,0c-1.995,0.099 -3.325,1.051 -3.989,2.857l-0,22.481l0.906,1.392c0.967,0.878 2.086,1.391 3.355,1.538l2.448,-0.367c1.269,-0.683 2.144,-1.537 2.629,-2.563l-0,-17.575l31.158,0c-0.797,1.216 -1.324,2.514 -1.593,3.883l0,4.687c0.423,2.295 1.601,4.419 3.536,6.371c4.17,3.369 9.066,5.176 14.687,5.419l45.963,0c1.933,0.245 3.626,0.831 5.077,1.758c1.933,1.27 2.96,2.808 3.082,4.614l0,2.929c-0.303,1.269 -0.847,2.416 -1.632,3.442c-1.935,1.562 -4.17,2.538 -6.708,2.929l-49.862,-0c-1.632,-0.391 -2.855,-1.099 -3.671,-2.124c-0.817,-1.025 -1.224,-2.245 -1.224,-3.661c-0,-1.416 -1.179,-2.392 -3.536,-2.93c-1.572,-0.146 -2.735,-0.024 -3.49,0.366c-0.757,0.391 -1.496,1.246 -2.222,2.564l0,2.489c0.423,2.442 1.542,4.639 3.355,6.591c2.84,2.735 6.437,4.222 10.788,4.467l49.136,0c4.473,-0.245 8.552,-1.464 12.239,-3.661c3.989,-2.978 6.134,-6.542 6.437,-10.692l-0,-2.49c-0.303,-3.222 -1.663,-6.126 -4.08,-8.714c-3.989,-3.369 -8.612,-5.248 -13.87,-5.639l-46.326,0c-2.237,-0.244 -4.231,-0.879 -5.984,-1.904c-1.572,-1.073 -2.356,-2.367 -2.356,-3.881c-0,-1.562 0.482,-2.977 1.45,-4.248c1.575,-1.314 3.451,-2.179 5.631,-2.565l8.409,0l1.516,-0.217l41.014,-0c3.022,0.732 4.608,1.843 4.76,3.331c0.15,1.491 0.437,2.625 0.861,3.406c0.422,0.782 1.419,1.464 2.992,2.05c1.631,0.099 2.991,-0.17 4.079,-0.805c1.147,-0.78 1.782,-1.684 1.904,-2.709c-0,-3.515 -1.36,-6.542 -4.08,-9.081c-3.023,-2.343 -6.679,-3.637 -10.969,-3.882l-26.145,0c1.366,-1.946 2.123,-4.099 2.29,-6.446l0,-2.563c-0.303,-3.319 -1.722,-6.273 -4.261,-8.861c-3.988,-3.369 -8.703,-5.174 -14.142,-5.419l-59.29,0c-2.056,0.196 -3.476,1.148 -4.261,2.856l-0,1.977c0.664,1.465 1.994,2.417 3.989,2.856l60.015,0c2.054,0.293 3.899,0.952 5.53,1.977c1.753,1.271 2.689,2.759 2.811,4.468l-0,2.856c-0.122,1.318 -0.666,2.489 -1.632,3.515c-1.575,1.491 -3.491,2.43 -5.753,2.784Z" style="fill:#d9d9d9;"/></svg>